<svg id="Layer_1" data-name="Layer 1" xmlns="http://www.w3.org/2000/svg" viewBox="0 0 1080 1080"><defs><style>.cls-1,.cls-3{fill:#002e44;}.cls-2{fill:none;stroke:#002e44;stroke-miterlimit:10;stroke-width:1.5px;}.cls-3{font-size:9px;font-family:Arial-BoldMT, Arial;font-weight:700;}</style></defs><path class="cls-1" d="M358.51,496a5.53,5.53,0,0,0-2.85,5.18v42.56a5.74,5.74,0,0,1-2.88,5l-51.4,29.68a5.74,5.74,0,0,1-5.75,0l-51.4-29.68a5.75,5.75,0,0,1-2.88-5V484.34c0-1.84-1.36-1.86-2.12-1.47a33.21,33.21,0,0,0-4.87,3c-1.24.85-3.17,2.32-4.23,3.15a7.41,7.41,0,0,0-2.86,5.88V547a14.11,14.11,0,0,0,7,12.21l57.13,33a14.09,14.09,0,0,0,14.1,0l57.13-33A14.08,14.08,0,0,0,369.73,547V490.2c0-1.29-.54-2.55-1.66-1.26C366,491.33,363.53,493.32,358.51,496Z"/><path class="cls-1" d="M228.41,475.81a.87.87,0,0,0,1.33,1.07c19.25-15.06,39.22-7.32,64.42,4.25,45.06,20.68,76.23,3.66,75.67-20.38-.07-1.69-1.2-1.43-2-.28-9.65,12.75-34.75,16.11-73.6.88C260.61,448.17,237.54,456.75,228.41,475.81Z"/><circle class="cls-2" cx="868.38" cy="462.52" r="5.96"/><path class="cls-1" d="M464.24,538.57c-5.48,0-11.06-1.71-13.11-3.43v28.29H434.81v-78h14.72v6.39h.11c2.85-5.25,8.79-7.87,16-7.87,12.67,0,24.87,9.58,24.87,27.26C490.48,527.84,478.61,538.57,464.24,538.57Zm-3-40a12,12,0,0,0-10.15,5.36v16.2c1.6,2.16,5,4.56,10.15,4.56,7.3,0,12.43-5.59,12.43-13S468.58,498.53,461.28,498.53Z"/><path class="cls-1" d="M522.57,538.68c-15.63,0-28.18-11.07-28.18-27.49s12.55-27.49,28.18-27.49,28.18,11.06,28.18,27.49S538.08,538.68,522.57,538.68Zm0-40.38c-6.27,0-11.64,5.48-11.64,13.12s5.37,13.11,11.64,13.11,11.63-5.47,11.63-13.11S528.72,498.3,522.57,498.3Z"/><path class="cls-1" d="M574.73,539.14c-10.61-.46-17.68-5.93-17.68-18.37V455.86h16.54v62.86c0,4.22,2.39,6.5,6.95,6.84Z"/><path class="cls-1" d="M614.22,532c-7.88,20.76-16.09,28.29-25.79,32.06l-10.26-10.27c8.33-3.2,14.71-9.24,18.94-20.19l-18.6-48.14h16.2l7.52,20.07a70.56,70.56,0,0,1,3.09,10.16h.22c1-3.54,2.17-7.19,3.32-10.16l7.52-20.07h15.4Z"/><path class="cls-1" d="M676.3,470.81a19.61,19.61,0,0,0-6.73-1.37c-6.16,0-9.35,3.65-9.35,11.06v4.91h14.83l-3.31,13.69H660.22v38H644v-38h-7.87V485.41H644v-6.05c0-15.74,10.15-23.5,23.16-23.5,4.79,0,9.57.57,12.2,1.71Z"/><path class="cls-1" d="M682.14,563.78l-9.92-9.93c6.27-2.05,10.5-6.27,10.5-15.17V485.41h16.87v54.18A24.63,24.63,0,0,1,682.14,563.78Z"/><path class="cls-1" d="M734.18,538.68c-15.63,0-28.18-11.07-28.18-27.49s12.55-27.49,28.18-27.49,28.18,11.06,28.18,27.49S749.69,538.68,734.18,538.68Zm0-40.38c-6.27,0-11.64,5.48-11.64,13.12s5.37,13.11,11.64,13.11,11.63-5.47,11.63-13.11S740.33,498.3,734.18,498.3Z"/><path class="cls-1" d="M800.25,503.2a12.41,12.41,0,0,0-5-1.25C789.88,502,785,504.8,785,513v24.07H768.2V485.41h16.54v11.52h.11c1.72-8.1,7.77-12.43,14.73-12.43a15.62,15.62,0,0,1,4.79.68Z"/><path class="cls-1" d="M845.11,537.08V530.7H845c-2.85,5.24-8.78,7.87-16,7.87-12.66,0-24.87-9.59-24.87-27.27,0-16.65,11.87-27.49,26.24-27.49,5.48,0,11.07,1.82,13.12,3.54V455.86h16.31v81.22Zm-1.6-33.88a12.5,12.5,0,0,0-10.15-4.67c-7.3,0-12.44,5.7-12.44,13.12s5.14,13.11,12.44,13.11a12,12,0,0,0,10.15-5.36Z"/><circle class="cls-1" cx="691.09" cy="472.61" r="8.98"/><text class="cls-3" transform="translate(864.96 465.75)">R</text></svg>